<?xml version="1.0" encoding="utf-8"?>
<svg viewBox="42 96 451 311" xmlns="http://www.w3.org/2000/svg" xmlns:bx="https://boxy-svg.com">
  <defs>
    <style id="bx-google-fonts">@import url(https://fonts.googleapis.com/css?family=Alegreya+Sans:100,100italic,300,300italic,400,400italic,500,500italic,700,700italic,800,800italic,900,900italic);</style>
  </defs>
  <g transform="matrix(1, 0, 0, 1, 35.898441, -11.686501)">
    <g transform="matrix(1, 0, 0, 1, -6.928606, 107.393394)">
      <path d="M 55.422 180.425 L 76.208 224.884 L 34.636 224.884 L 55.422 180.425 Z" style="fill: rgb(216, 216, 216); stroke: rgb(13, 14, 13); stroke-width: 2;" bx:shape="triangle 34.636 180.425 41.572 44.459 0.5 0 1@a794c9ed"/>
      <ellipse cx="55.133" cy="170.898" rx="20.497" ry="20.497" style="fill: rgb(216, 216, 216); stroke: rgb(13, 14, 13); stroke-width: 2;"/>
    </g>
    <g transform="matrix(1, 0, 0, 1, 9.815154, 129.622711)">
      <path d="M 55.422 180.425 L 76.208 224.884 L 34.636 224.884 L 55.422 180.425 Z" style="fill: rgb(216, 216, 216); stroke: rgb(13, 14, 13); stroke-width: 2;" bx:shape="triangle 34.636 180.425 41.572 44.459 0.5 0 1@a794c9ed"/>
      <ellipse cx="55.133" cy="170.898" rx="20.497" ry="20.497" style="fill: rgb(216, 216, 216); stroke: rgb(13, 14, 13); stroke-width: 2;"/>
    </g>
    <g transform="matrix(1, 0, 0, 1, 23.094984, 149.253769)">
      <path d="M 55.422 180.425 L 76.208 224.884 L 34.636 224.884 L 55.422 180.425 Z" style="fill: rgb(216, 216, 216); stroke: rgb(13, 14, 13); stroke-width: 2;" bx:shape="triangle 34.636 180.425 41.572 44.459 0.5 0 1@a794c9ed"/>
      <ellipse cx="55.133" cy="170.898" rx="20.497" ry="20.497" style="fill: rgb(216, 216, 216); stroke: rgb(13, 14, 13); stroke-width: 2;"/>
    </g>
    <text x="23.975" y="406.183" style="font-family: &quot;Alegreya Sans&quot;; font-size: 20px; white-space: pre;">data contributor</text>
  </g>
  <path d="M 96.416 81.115" style="fill: none; stroke: black;"/>
  <path d="M 122.398 140.008" style="fill: none; stroke: black;"/>
  <path d="M 278.525 103.545 C 293.813 103.545 306.249 115.979 306.249 131.268 C 306.249 131.353 306.239 131.44 306.233 131.526 C 306.221 131.729 306.207 131.935 306.203 132.142 L 306.099 136.335 L 310.297 136.35 C 320.457 136.379 328.721 144.669 328.721 154.829 C 328.721 164.961 320.473 173.251 310.335 173.303 L 309.439 173.307 L 234.257 173.307 C 222.944 173.296 213.738 164.086 213.738 152.776 C 213.738 144.012 219.318 136.21 227.618 133.362 L 229.929 132.572 L 230.336 130.164 C 231.343 124.224 236.445 119.912 242.467 119.912 C 244.387 119.912 246.242 120.358 247.98 121.233 L 251.725 123.114 L 253.532 119.336 C 258.123 109.742 267.934 103.545 278.525 103.545 M 278.525 99.437 C 265.858 99.437 254.952 106.853 249.828 117.562 C 247.612 116.448 245.117 115.805 242.467 115.805 C 234.337 115.805 227.603 121.722 226.287 129.479 C 216.604 132.801 209.631 141.961 209.631 152.776 C 209.631 166.376 220.655 177.404 234.253 177.415 L 310.357 177.415 L 310.357 177.411 C 322.779 177.348 332.828 167.263 332.828 154.829 C 332.828 142.375 322.755 132.279 310.308 132.242 C 310.317 131.914 310.357 131.598 310.357 131.268 C 310.357 113.688 296.105 99.437 278.525 99.437 L 278.525 99.437 Z" fill="#37404D"/>
  <text x="223.153" y="205.264" style="font-family: &quot;Alegreya Sans&quot;; font-size: 20px; white-space: pre;">cloud server</text>
  <text x="220.414" y="250.692" style="font-family: &quot;Alegreya Sans&quot;; font-size: 20px; white-space: pre;" transform="matrix(1, 0, 0, 1.000001, 27.213472, 49.10783)">public key</text>
  <g transform="matrix(1, 0, 0, 1, 35.898441, -11.686501)">
    <g transform="matrix(1, 0, 0, 1, 321.602417, 149.831131)">
      <path d="M 55.422 180.425 L 76.208 224.884 L 34.636 224.884 L 55.422 180.425 Z" style="stroke-width: 2; stroke: rgb(11, 211, 218); fill: rgb(8, 212, 195);" bx:shape="triangle 34.636 180.425 41.572 44.459 0.5 0 1@a794c9ed"/>
      <ellipse cx="55.133" cy="170.898" rx="20.497" ry="20.497" style="stroke-width: 2; stroke: rgb(11, 211, 218); fill: rgb(8, 212, 195);"/>
    </g>
    <text x="348.346" y="403.446" style="font-family: &quot;Alegreya Sans&quot;; font-size: 20px; white-space: pre;">analyst</text>
  </g>
  <g transform="matrix(1, 0, 0, 1, 35.898441, -11.686501)">
    <path clip-rule="evenodd" d="M 322.404 328.563 C 322.404 328.165 322.24 327.785 321.967 327.499 L 307.206 312.589 C 306.623 312 305.68 312.001 305.098 312.589 C 304.515 313.177 304.515 314.131 305.098 314.718 L 317.315 327.057 L 164.067 327.054 C 163.244 327.054 162.576 327.728 162.576 328.56 C 162.576 329.393 163.244 330.066 164.067 330.066 L 317.313 330.07 L 305.098 342.409 C 304.515 342.996 304.516 343.95 305.098 344.538 C 305.681 345.125 306.625 345.125 307.206 344.538 L 321.967 329.628 C 322.246 329.346 322.4 328.959 322.404 328.563 Z" fill="#121313" fill-rule="evenodd" id="Arrow_Forward" transform="matrix(-1, 0, 0, -1, 484.98, 657.124984)"/>
  </g>
  <g transform="matrix(-0.432694, 0.432693, -0.432693, -0.432694, 403.813507, 254.960175)">
    <path clip-rule="evenodd" d="M 322.404 328.563 C 322.404 328.165 322.24 327.785 321.967 327.499 L 307.206 312.589 C 306.623 312 305.68 312.001 305.098 312.589 C 304.515 313.177 304.515 314.131 305.098 314.718 L 317.315 327.057 L 164.067 327.054 C 163.244 327.054 162.576 327.728 162.576 328.56 C 162.576 329.393 163.244 330.066 164.067 330.066 L 317.313 330.07 L 305.098 342.409 C 304.515 342.996 304.516 343.95 305.098 344.538 C 305.681 345.125 306.625 345.125 307.206 344.538 L 321.967 329.628 C 322.246 329.346 322.4 328.959 322.404 328.563 Z" fill="#121313" fill-rule="evenodd" id="path-1" transform="matrix(-1, 0, 0, -1, 484.98, 657.124984)"/>
    <path clip-rule="evenodd" d="M 100.109 86.698 C 100.109 86.3 99.945 85.92 99.672 85.634 L 84.911 70.724 C 84.328 70.135 83.385 70.136 82.803 70.724 C 82.22 71.312 82.22 72.266 82.803 72.853 L 95.02 85.192 L -58.228 85.189 C -59.051 85.189 -59.719 85.863 -59.719 86.695 C -59.719 87.528 -59.051 88.201 -58.228 88.201 L 95.018 88.205 L 82.803 100.544 C 82.22 101.131 82.221 102.085 82.803 102.673 C 83.386 103.26 84.33 103.26 84.911 102.673 L 99.672 87.763 C 99.951 87.481 100.105 87.094 100.109 86.698 Z" fill="#121313" fill-rule="evenodd" id="path-2" transform="matrix(0.000001, -1, 1, 0.000001, -66.502529, 106.892422)"/>
  </g>
  <text x="220.414" y="250.692" style="font-family: &quot;Alegreya Sans&quot;; font-size: 20px; white-space: pre;" transform="matrix(1, 0, 0, 1.000001, -172.595276, -46.435242)">encrypted data</text>
  <text x="220.414" y="250.692" style="font-family: &quot;Alegreya Sans&quot;; font-size: 20px; white-space: pre;" transform="matrix(1, 0, 0, 1.000001, 125.929367, -46.435242)">encrypted statistcs</text>
</svg>